<svg width="22" height="22" viewBox="0 0 22 22" fill="none" xmlns="http://www.w3.org/2000/svg">
<g clip-path="url(#clip0_14_505)">
<path d="M1.88971 2.86911H7.35581C8.32228 2.86911 9.24916 3.25304 9.93256 3.93643C10.616 4.61983 10.9999 5.54671 10.9999 6.51318V19.2674C10.9999 18.5426 10.7119 17.8474 10.1994 17.3349C9.68684 16.8223 8.99168 16.5344 8.26683 16.5344H1.88971V2.86911Z" stroke="#500E7F" stroke-width="1.82203" stroke-linecap="round" stroke-linejoin="round"/>
<path d="M20.1103 2.86911H14.6442C13.6777 2.86911 12.7508 3.25304 12.0674 3.93643C11.384 4.61983 11.0001 5.54671 11.0001 6.51318V19.2674C11.0001 18.5426 11.2881 17.8474 11.8006 17.3349C12.3132 16.8223 13.0083 16.5344 13.7332 16.5344H20.1103V2.86911Z" stroke="#500E7F" stroke-width="1.82203" stroke-linecap="round" stroke-linejoin="round"/>
</g>
<defs>
<clipPath id="clip0_14_505">
<rect width="21.8644" height="21.8644" fill="white" transform="translate(0.0678101 0.136047)"/>
</clipPath>
</defs>
</svg>
